<svg id="Guide" enable-background="new 0 0 512 512" height="512" viewBox="0 0 512 512" width="512" xmlns="http://www.w3.org/2000/svg"><path d="m19.013 347.928c0 .04-.006 148.072-.006 148.072.029.361.293 3.029 2.702 4.715 2.439 1.706 5.074 1.003 5.415.905l462-174.5c.495-.189 2.208-.911 3.202-2.786.611-1.152.684-2.236.68-2.817v-152.817c0-.158-.011-.312-.023-.466.06-2.443-.878-4.805-2.596-6.542-.543-.552-1.189-.993-1.9-1.3l-115.279-49.545c1.758-10.579-.184-21.441-5.5-30.755-.37-.676-.765-1.341-1.178-2.015-6.913-11.473-18.181-19.655-31.23-22.677-2.775-.626-5.599-1.014-8.44-1.161-.351-2.064-.395-4.169-.13-6.246 1.049-8.635 6.678-16.365 11.792-20.194 2.7-1.922 3.33-5.668 1.409-8.368-1.922-2.7-5.668-3.33-8.368-1.409-.08.057-.158.116-.235.176-8.972 6.952-14.892 17.117-16.51 28.351-.347 2.797-.34 5.627.021 8.423-7.43 1.305-14.526 4.079-20.871 8.159-1.813 1.152-3.566 2.397-5.25 3.73-2.02 1.595-3.904 3.355-5.634 5.261l-24.884-10.698c-4.011-2.915-9.626-2.025-12.541 1.986-.086.118-.169.238-.248.36l-225.028 280.444-.033.041c-.281.262-.708.729-1.013 1.43-.42.964-.373 1.835-.324 2.243zm461.987-96.737-328.8 128.509-121.2 47.374v-74.911l450-173.276zm-450 188.767 450-175.884v53.276l-450 169.969zm265.159-363.687c1.37-1.084 2.796-2.096 4.271-3.032 5.535-3.572 11.793-5.874 18.324-6.74.904 1.571 1.936 3.066 3.085 4.468 2.102 2.561 5.883 2.933 8.445.831 1.412-1.159 2.219-2.898 2.192-4.725.052.012.105.019.157.031 9.925 2.261 18.484 8.501 23.674 17.258.305.5.6.991.91 1.556 4.107 7.154 5.541 15.534 4.045 23.646-2.529 13.707-12.892 24.13-27.72 27.882-6.191 1.506-12.623 1.741-18.907.691l-2.1-.327c-19.097-3.23-31.96-21.329-28.73-40.426 1.065-6.297 3.829-12.184 7.995-17.025 1.333-1.485 2.791-2.853 4.359-4.088zm-42.427-3.7 22.424 9.638c-5.695 11.495-6.45 24.818-2.09 36.883 5.547 16.224 19.662 28.012 36.615 30.579l2.1.327c3.255.514 6.544.774 9.839.779 4.673.012 9.329-.557 13.862-1.694 15.528-3.929 27.355-13.583 33.25-26.664l106.1 45.6-432.232 166.434z"/><path d="m174.882 220.143h-12.544c-3.314 0-6 2.686-6 6s2.686 6 6 6h12.544c3.314 0 6-2.686 6-6s-2.686-6-6-6z"/><path d="m212.51 170.526c-3.314 0-6 2.686-6 6v6.663c0 3.314 2.686 6 6 6s6-2.686 6-6v-6.663c0-3.314-2.686-6-6-6z"/><path d="m257.932 212.642-16.013-5.451c-3.149-1.031-6.538.686-7.569 3.835-1.014 3.097.629 6.438 3.702 7.524l16.013 5.45c3.137 1.068 6.546-.61 7.613-3.746 1.068-3.137-.61-6.546-3.746-7.614z"/><path d="m129.49 263.323-2.986.605c-3.248.658-5.348 3.825-4.689 7.073.658 3.248 3.825 5.348 7.072 4.689l2.987-.605c3.248-.658 5.347-3.825 4.689-7.073s-3.825-5.347-7.073-4.689z"/><path d="m371.389 160.229h-6.671c-3.314 0-6 2.686-6 6s2.686 6 6 6h6.671c3.314 0 6-2.686 6-6s-2.686-6-6-6z"/><path d="m297.325 180.218h-.6c-3.314 0-6 2.686-6 6s2.686 6 6 6h.6c3.314 0 6-2.686 6-6s-2.686-6-6-6z"/><path d="m245.752 130.267c1.196 3.09 4.671 4.626 7.761 3.43s4.626-4.671 3.43-7.761c-.009-.023-.018-.046-.027-.068l-3.342-8.48c-1.233-3.076-4.726-4.569-7.802-3.336-3.05 1.223-4.549 4.672-3.362 7.736z"/></svg>