<svg version="1.1" id="Capa_1" xmlns="http://www.w3.org/2000/svg" xmlns:xlink="http://www.w3.org/1999/xlink" x="0px" y="0px"
	 viewBox="0 0 425.6 425.6" style="enable-background:new 0 0 425.6 425.6;" xml:space="preserve">
<g>
	<g>
		<path d="M331.2,128.8c1.6-4.8,2.4-11.2,2.4-16.8c0-20.8-12.8-40-31.2-48.8c-8-36-47.2-63.2-92.8-63.2c-48,0-88,29.6-93.6,68.8
			C102.4,79.2,94.4,95.2,94.4,112c0,4.8,0.8,9.6,1.6,13.6c-7.2,9.6-10.4,20.8-10.4,32C85.6,180,100,200,120,208l85.6,212.8
			c1.6,3.2,4,4.8,7.2,4.8s6.4-1.6,7.2-4.8L305.6,208c20-8,34.4-27.2,34.4-50.4C340,147.2,336.8,136.8,331.2,128.8z M139.2,216
			l-1.6-3.2h0.8c1.6,0,2.4,0,4,0L139.2,216z M145.6,232.8l23.2-24.8c4.8,6.4,11.2,11.2,18.4,14.4l12,12l-28.8,30.4l-20.8-22.4
			L145.6,232.8z M210.4,246.4l28.8,30.4L210.4,308l-28.8-31.2L210.4,246.4z M168.8,289.6l1.6-1.6l28.8,32l-12.8,13.6L168.8,289.6z
			 M212,396.8l-18.4-46.4l16.8-18.4l19.2,21.6L212,396.8z M236.8,336l-15.2-16.8l28.8-31.2l4,4L236.8,336z M250.4,264.8l-28.8-30.4
			l11.2-12c8-3.2,14.4-8,19.2-14.4l25.6,27.2L250.4,264.8z M284,218.4l-6.4-6.4c2.4,0,4.8,0.8,8,0.8h0.8L284,218.4z M285.6,196
			c-9.6,0-19.2-4-26.4-11.2c-1.6-1.6-4.8-2.4-7.2-2.4c-2.4,0.8-4.8,2.4-5.6,4.8c-6.4,13.6-20,23.2-35.2,23.2
			c-14.4,0-28-8.8-34.4-21.6c-0.8-2.4-3.2-4-5.6-4.8c-0.8,0-0.8,0-1.6,0c-1.6,0-4,0.8-5.6,2.4c-7.2,6.4-16,9.6-25.6,9.6
			c-20.8,0-38.4-16.8-38.4-38.4c0-9.6,3.2-18.4,9.6-24.8c1.6-2.4,2.4-5.6,1.6-8c-1.6-4-2.4-8.8-2.4-12.8c0-12.8,6.4-24.8,17.6-32
			c2.4-1.6,3.2-4,4-6.4c2.4-32,36.8-57.6,78.4-57.6c39.2,0,72.8,23.2,77.6,54.4c0.8,3.2,2.4,5.6,4.8,6.4c15.2,5.6,24.8,20,24.8,36
			c0,4.8-0.8,10.4-3.2,15.2c-0.8,2.4-0.8,5.6,0.8,8c4.8,6.4,8,14.4,8,23.2C323.2,179.2,306.4,196,285.6,196z"/>
	</g>
</g>
<g>
	<g>
		<path d="M212,36c-0.8-4.8-4.8-7.2-9.6-6.4c-1.6,0-46.4,8.8-54.4,51.2c-0.8,4,1.6,8.8,6.4,9.6c0.8,0,0.8,0,1.6,0c4,0,7.2-2.4,8-6.4
			c6.4-31.2,40-37.6,41.6-38.4C209.6,44.8,212.8,40.8,212,36z"/>
	</g>
</g>
<g>
	<g>
		<path d="M272,96c-4-1.6-8.8,0.8-10.4,4.8c-1.6,4,0.8,8.8,4.8,10.4c1.6,0.8,15.2,6.4,14.4,22.4c0,4.8,3.2,8,8,8c4,0,8-3.2,8-8
			C297.6,112,281.6,99.2,272,96z"/>
	</g>
</g>
<g>
</g>
<g>
</g>
<g>
</g>
<g>
</g>
<g>
</g>
<g>
</g>
<g>
</g>
<g>
</g>
<g>
</g>
<g>
</g>
<g>
</g>
<g>
</g>
<g>
</g>
<g>
</g>
<g>
</g>
</svg>
