<svg version="1.1" id="Capa_1" xmlns="http://www.w3.org/2000/svg" xmlns:xlink="http://www.w3.org/1999/xlink" x="0px" y="0px"
	 viewBox="0 0 496 496" style="enable-background:new 0 0 496 496;" xml:space="preserve">
<g>
	<g>
		<path d="M371.128,40c-44.24,0-85.568,23.744-107.864,61.952L248,128.128l-15.264-26.168C210.44,63.744,169.112,40,124.872,40
			C56.016,40,0,96.016,0,164.872c0,29.144,2.896,58.408,8.616,86.984l1.888,9.44c11.352,56.776,42.64,107.456,88.168,143.128
			C96.984,408.776,96,413.4,96,418.096C96,438.992,113,456,133.904,456h3.28c11.376,0,22.272-5.272,29.424-14.08
			C192.736,451.248,220.112,456,248,456s55.264-4.752,81.392-14.08c7.152,8.816,18.048,14.08,29.424,14.08h3.28
			C383,456,400,438.992,400,418.096c0-4.696-0.984-9.32-2.672-13.672c45.528-35.672,76.816-86.352,88.168-143.12l1.888-9.44
			c5.72-28.584,8.616-57.848,8.616-86.992C496,96.016,439.984,40,371.128,40z M294.76,176.32c5.696,2.848,9.24,8.584,9.24,14.96
			c0,9.216-7.504,16.72-16.72,16.72h-1.44c-2.584,0-5.16-0.608-7.464-1.76l-30.008-15l-47.12-23.56
			c-5.704-2.848-9.248-8.584-9.248-14.96c0-9.216,7.504-16.72,16.72-16.72h1.44c2.584,0,5.168,0.608,7.48,1.768L294.76,176.32z
			 M304,247.28c0,9.216-7.504,16.72-16.72,16.72h-1.44c-2.584,0-5.168-0.608-7.48-1.768l-77.12-38.552
			c-5.696-2.848-9.24-8.584-9.24-14.96c0-9.216,7.504-16.72,16.72-16.72h1.44c2.584,0,5.16,0.608,7.464,1.76l30.008,15l47.12,23.56
			C300.456,235.168,304,240.904,304,247.28z M26.192,258.16l-1.888-9.44c-3.736-18.68-6.12-37.672-7.336-56.72H32v-16H16.272
			C16.176,172.288,16,168.584,16,164.872c0-35.28,16.944-66.608,43.048-86.52l15.296,15.296l11.312-11.312L72.68,69.36
			C88.184,60.856,105.968,56,124.872,56c38.576,0,74.608,20.696,94.04,54.016l8.648,14.824l-2.76-1.376
			c-4.512-2.272-9.576-3.464-14.632-3.464h-1.44c-12.72,0-23.648,7.368-29.064,18l-2.216-3.808
			c-10.864-18.624-31-30.192-52.576-30.192C91.312,104,64,131.304,64,164.872c0,6.504,0.168,13.032,0.504,19.536l15.976-0.832
			c-0.32-6.232-0.48-12.472-0.48-18.704C80,140.136,100.136,120,124.872,120c15.896,0,30.744,8.528,38.744,22.256l24.208,41.496
			C180.664,189.76,176,198.656,176,208.72c0,12.48,6.928,23.696,18.088,29.272l20.696,10.344c-1.016,1.48-1.832,3.072-2.632,4.672
			l-66.08,86.632c-29.44-23.856-49.728-57.048-57.128-94.032l-1.872-9.416c-1.408-7.04-2.624-14.2-3.6-21.296l-15.848,2.2
			c1.024,7.4,2.296,14.88,3.768,22.224l1.872,9.416c8.16,40.8,30.576,77.4,63.112,103.624L107.2,390.616
			C65.44,357.368,36.672,310.592,26.192,258.16z M154.616,431.368c-4.12,5.408-10.632,8.632-17.432,8.632h-3.28
			C121.832,440,112,430.168,112,418.096c0-4.768,1.592-9.488,4.48-13.272l19.472-25.56l10.392,10.392l11.312-11.312l-11.92-11.92
			l64.28-84.368c1.312,3.88,3.248,7.552,5.736,10.824L237.936,322L154.616,431.368z M248,335.208l29.064,38.144
			c-19.152,3.496-38.976,3.496-58.128,0L248,335.208z M177,428.392l31.208-40.968C221.24,390.432,234.608,392,248,392
			c13.392,0,26.76-1.568,39.792-4.568L319,428.4C273.144,443.528,222.856,443.528,177,428.392z M362.096,440h-3.28
			c-6.792,0-13.312-3.224-17.424-8.632L228.48,283.184c-2.888-3.8-4.48-8.512-4.48-13.28c0-2.864,0.592-5.616,1.624-8.176
			l0.352-0.456l-0.168-0.128c0.872-2,2.152-3.808,3.608-5.488l41.776,20.88c4.048,2.032,8.552,3.056,13.088,3.28l10.632,13.96
			l-12.568,12.568l11.312,11.312l11.04-11.04l52.488,68.888l-10.84,10.84l11.312,11.312l9.312-9.312l12.552,16.472
			c2.888,3.8,4.48,8.512,4.48,13.28C384,430.168,374.168,440,362.096,440z M479.728,176H464v16h15.032
			c-1.216,19.048-3.592,38.04-7.328,56.72l-1.896,9.44c-10.48,52.424-39.248,99.2-80.992,132.456l-29.152-38.264
			c32.52-26.208,54.92-62.792,63.072-103.584l1.888-9.464c2-10.016,3.616-20.232,4.8-30.376l-15.888-1.856
			c-1.136,9.72-2.68,19.504-4.6,29.096l-1.888,9.472c-7.392,36.96-27.672,70.136-57.088,93.984l-48.136-63.176
			C312.552,271.056,320,260.072,320,247.28c0-11.656-6.096-22.152-15.992-28.04c9.536-5.72,15.992-16.056,15.992-27.96
			c0-6.584-1.976-12.792-5.44-18.024l17.808-30.984c8.008-13.744,22.856-22.272,38.76-22.272C395.864,120,416,140.136,416,164.872
			c0,3.624-0.056,7.248-0.168,10.88l15.992,0.488c0.12-3.784,0.176-7.584,0.176-11.368C432,131.304,404.688,104,371.128,104
			c-21.568,0-41.712,11.568-52.576,30.2l-16.32,27.992c-0.112-0.056-0.208-0.128-0.32-0.184l-42.704-21.344l17.872-30.648
			C296.52,76.696,332.552,56,371.128,56C431.16,56,480,104.84,480,164.872C480,168.576,479.824,172.288,479.728,176z"/>
	</g>
</g>
<g>
	<g>
		<rect x="148.69" y="80.001" transform="matrix(0.7071 -0.7071 0.7071 0.7071 -15.3623 138.9136)" width="22.624" height="16"/>
	</g>
</g>
<g>
	<g>
		<rect x="87.998" y="332.689" transform="matrix(0.7071 -0.7071 0.7071 0.7071 -215.1283 168.636)" width="16" height="22.624"/>
	</g>
</g>
<g>
	<g>
		<rect x="44.688" y="240.003" transform="matrix(0.7071 -0.7071 0.7071 0.7071 -158.9627 112.2364)" width="22.624" height="16"/>
	</g>
</g>
<g>
	<g>
		<rect x="343.997" y="68.677" transform="matrix(0.7071 -0.7071 0.7071 0.7071 46.5368 272.3275)" width="16" height="22.624"/>
	</g>
</g>
<g>
	<g>
		<rect x="412.686" y="95.968" transform="matrix(0.7071 -0.7071 0.7071 0.7071 50.6698 330.2636)" width="22.624" height="16"/>
	</g>
</g>
<g>
	<g>
		<rect x="188.711" y="319.997" transform="matrix(0.7071 -0.7071 0.7071 0.7071 -173.3436 237.5052)" width="22.624" height="16"/>
	</g>
</g>
<g>
	<g>
		<rect x="388.644" y="336.003" transform="matrix(0.7071 -0.7071 0.7071 0.7071 -126.102 383.5686)" width="22.624" height="16"/>
	</g>
</g>
<g>
	<g>
		<rect x="431.999" y="236.693" transform="matrix(0.7071 -0.7071 0.7071 0.7071 -46.4933 383.7648)" width="16" height="22.624"/>
	</g>
</g>
<g>
	<g>
		<rect x="236.716" y="407.993" transform="matrix(0.7071 -0.7071 0.7071 0.7071 -221.5058 297.2246)" width="22.624" height="16"/>
	</g>
</g>
<g>
</g>
<g>
</g>
<g>
</g>
<g>
</g>
<g>
</g>
<g>
</g>
<g>
</g>
<g>
</g>
<g>
</g>
<g>
</g>
<g>
</g>
<g>
</g>
<g>
</g>
<g>
</g>
<g>
</g>
</svg>
