<svg version="1.1" id="Layer_1" xmlns="http://www.w3.org/2000/svg" xmlns:xlink="http://www.w3.org/1999/xlink" x="0px" y="0px"
	 viewBox="0 0 512.024 512.024" style="enable-background:new 0 0 512.024 512.024;" xml:space="preserve">
<g id="XMLID_225_">
	<g id="XMLID_7482_">
		<g id="XMLID_7481_">
			<rect id="XMLID_7969_" x="71.131" y="197.806" style="fill:#FFDAA7;" width="378.921" height="201.815"/>
			<path id="XMLID_7967_" style="fill:#FFC988;" d="M450.051,197.806v43.349c-2.733,0.51-5.54,0.776-8.421,0.776H109.971v157.69
				h-38.84V197.806H450.051z"/>
			<rect id="XMLID_7999_" x="71.131" y="329.404" style="fill:#B75B16;" width="378.921" height="26.794"/>
			<rect id="XMLID_7995_" x="71.131" y="329.404" style="fill:#9B470D;" width="38.84" height="26.794"/>
			<rect id="XMLID_7996_" x="71.131" y="262.313" style="fill:#FFA6B7;" width="378.921" height="26.794"/>
			<rect id="XMLID_7992_" x="71.131" y="262.313" style="fill:#FC819C;" width="38.84" height="26.794"/>
			<path id="XMLID_7494_" style="fill:#B75B16;" d="M468.648,195.775c0,14.917-12.1,27.017-27.017,27.017H104.176
				c-7.368,0-13.344,5.975-13.344,13.354v163.475H36.82V216.274c0-17.937,9.867-33.577,24.465-41.775
				c6.943-3.902,14.949-6.124,23.477-6.114l356.89,0.362c1.701,0,3.37,0.16,4.987,0.468
				C459.174,171.565,468.648,182.559,468.648,195.775z"/>
			<path id="XMLID_7491_" style="fill:#9B470D;" d="M446.638,169.215c-3.009,8.368-7.953,15.64-14.503,20.616
				c-14.917,11.345-37.192,13.035-49.143,13.035c-19.394,0-38.064-4.21-51.217-11.558c-6.422-3.594-11.621-8.612-15.406-14.609
				c-2.881,5.199-6.624,9.718-11.122,13.131c-14.917,11.345-37.192,13.035-49.143,13.035c-19.404,0-38.064-4.21-51.217-11.558
				c-6.422-3.594-11.621-8.612-15.417-14.609c-2.881,5.199-6.613,9.718-11.122,13.131c-14.917,11.345-37.182,13.035-49.133,13.035
				c-19.404,0-38.075-4.21-51.217-11.558c-7.188-4.019-12.855-9.835-16.714-16.81c6.943-3.902,14.949-6.124,23.477-6.114
				l356.89,0.362C443.353,168.747,445.022,168.907,446.638,169.215z"/>
			<g id="XMLID_6637_">
				<path id="XMLID_6631_" style="fill:#F2F2F2;" d="M139.225,89.319c-27.548,13.282-21.221,23.78-43.283,29.865
					s-30.391,43.242-8.609,55.414s63.424,12.172,79.44,0s14.735-52.529-13.453-55.414
					C125.131,116.299,158.042,80.247,139.225,89.319z"/>
				<path id="XMLID_7206_" style="fill:#D8D7DA;" d="M166.771,174.597c-16.013,12.174-57.66,12.174-79.435,0
					c-2.977-1.669-5.401-3.796-7.283-6.262c22.743,8.995,58.372,7.974,72.896-3.073c11.462-8.719,14.067-31.887,4.264-45.401
					C181.592,125.9,182.007,163.008,166.771,174.597z"/>
			</g>
			<g id="XMLID_6640_">
				<path id="XMLID_6661_" style="fill:#F2F2F2;" d="M266.115,89.319c-27.548,13.282-21.221,23.78-43.283,29.865
					s-30.391,43.242-8.609,55.414s63.424,12.172,79.44,0s14.735-52.529-13.453-55.414
					C252.021,116.299,284.932,80.247,266.115,89.319z"/>
				<path id="XMLID_7200_" style="fill:#D8D7DA;" d="M293.659,174.597c-16.013,12.174-57.649,12.174-79.435,0
					c-2.977-1.669-5.401-3.796-7.283-6.262c22.754,8.995,58.372,7.974,72.896-3.073c11.472-8.719,14.067-31.887,4.264-45.401
					C308.481,125.9,308.906,163.008,293.659,174.597z"/>
			</g>
			<g id="XMLID_6663_">
				<path id="XMLID_6667_" style="fill:#F2F2F2;" d="M393.006,89.319c-27.548,13.282-21.221,23.78-43.283,29.865
					s-30.391,43.242-8.609,55.414s63.424,12.172,79.44,0s14.735-52.529-13.453-55.414
					C378.912,116.299,411.823,80.247,393.006,89.319z"/>
				<path id="XMLID_7197_" style="fill:#D8D7DA;" d="M420.558,174.597c-16.023,12.174-57.66,12.174-79.446,0
					c-2.977-1.669-5.401-3.796-7.283-6.262c22.753,8.995,58.372,7.974,72.907-3.073c11.462-8.719,14.067-31.887,4.253-45.401
					C435.369,125.9,435.794,163.008,420.558,174.597z"/>
			</g>
		</g>
		<path id="XMLID_7419_" style="fill:#ADACB2;" d="M456.098,424.161H55.925c-15.691,0-30.611-6.801-40.903-18.644l-5.606-6.452
			c-4.334-4.987-0.792-12.758,5.815-12.758h481.561c6.607,0,10.149,7.771,5.815,12.758l-5.606,6.452
			C486.709,417.36,471.789,424.161,456.098,424.161z"/>
	</g>
	<path id="XMLID_1265_" d="M510.627,387.704c-2.502-5.488-7.803-8.897-13.834-8.897h-39.241V356.2V329.4v-40.29v-26.8v-35.925
		c11.041-5.765,18.6-17.321,18.6-30.615c0-9.206-3.584-17.867-10.097-24.394c-6.519-6.518-15.182-10.114-24.394-10.126l-4.746-0.006
		c1.954-7.682,2.006-16.276-0.248-24.297c-4.096-14.576-14.595-23.771-28.805-25.225c-3.035-0.311-4.54-1.071-4.906-1.628
		c-1.249-1.898,0.822-8.469,1.817-11.626c1.728-5.482,3.687-11.696-1.208-15.933c-4.924-4.262-11.385-1.146-13.818,0.026
		c-14.836,7.153-20.879,13.757-25.734,19.062c-4.456,4.869-7.146,7.809-16.286,10.329c-13.878,3.827-24.543,17.485-26.537,33.985
		c-0.646,5.346-0.263,10.482,1.005,15.193l-12.141-0.011c1.923-7.651,1.964-16.195-0.278-24.173
		c-4.096-14.576-14.595-23.771-28.804-25.225c-3.035-0.311-4.54-1.071-4.906-1.628c-1.249-1.898,0.822-8.469,1.817-11.626
		c1.728-5.482,3.687-11.696-1.208-15.933c-4.923-4.262-11.385-1.146-13.818,0.026c-14.837,7.153-20.879,13.757-25.734,19.063
		c-4.456,4.868-7.145,7.808-16.285,10.328c-13.878,3.827-24.543,17.484-26.537,33.985c-0.64,5.297-0.268,10.388,0.972,15.063
		l-12.076-0.011c1.891-7.618,1.919-16.11-0.31-24.043c-4.096-14.576-14.595-23.771-28.805-25.225
		c-3.035-0.311-4.54-1.071-4.906-1.628c-1.249-1.898,0.822-8.469,1.817-11.626c1.728-5.482,3.687-11.696-1.208-15.933
		c-4.924-4.262-11.385-1.146-13.818,0.026c-14.836,7.153-20.879,13.757-25.734,19.062c-4.456,4.869-7.146,7.809-16.286,10.329
		c-13.878,3.827-24.543,17.485-26.537,33.985c-0.74,6.122-0.133,11.969,1.616,17.213c-10.127,2.99-19.274,8.858-26.261,16.953
		c-8.669,10.045-13.444,22.892-13.444,36.175v38.061c0,4.143,3.358,7.5,7.5,7.5s7.5-3.357,7.5-7.5v-38.061
		c0-19.703,13.873-36.252,33.121-39.724c1.856,1.76,3.935,3.306,6.231,4.589c11.973,6.69,28.961,10.017,45.306,10.017
		c16.872,0,33.057-3.544,42.331-10.593c1.714-1.303,3.281-2.848,4.691-4.585l27.792,0.026c1.992,1.984,4.245,3.723,6.771,5.135
		c11.974,6.691,28.959,10.018,45.305,10.018c16.869,0,33.058-3.546,42.331-10.594c1.671-1.27,3.199-2.772,4.582-4.455l28.03,0.026
		c1.96,1.93,4.171,3.624,6.642,5.005c11.973,6.69,28.961,10.017,45.306,10.017c16.872,0,33.057-3.544,42.331-10.593
		c1.63-1.239,3.124-2.7,4.48-4.334l12.071,0.016c5.213,0.007,10.116,2.043,13.801,5.728c3.681,3.688,5.708,8.587,5.708,13.792
		c0,10.764-8.757,19.521-19.52,19.521h-337.45c-11.497,0-20.85,9.354-20.85,20.85v142.667h-39.01V284c0-4.143-3.358-7.5-7.5-7.5
		s-7.5,3.357-7.5,7.5v94.807H15.231c-6.032,0-11.333,3.409-13.834,8.897c-2.502,5.489-1.599,11.728,2.358,16.281l5.606,6.451
		c11.722,13.488,28.694,21.225,46.564,21.225h118.16c4.142,0,7.5-3.357,7.5-7.5s-3.358-7.5-7.5-7.5H55.925
		c-13.525,0-26.371-5.855-35.242-16.064l-5.606-6.45c-0.044-0.052-0.063-0.085-0.065-0.085c-0.008-0.065,0.059-0.212,0.104-0.244
		c0.008-0.003,0.046-0.011,0.115-0.011h481.562c0.074,0,0.105,0.012,0.106,0.006c0.054,0.037,0.121,0.184,0.116,0.239
		c-0.004,0.009-0.022,0.043-0.067,0.094l-5.606,6.451c-8.872,10.209-21.717,16.064-35.242,16.064H206.94c-4.142,0-7.5,3.357-7.5,7.5
		s3.358,7.5,7.5,7.5h249.158c17.87,0,34.842-7.736,46.564-21.225l5.607-6.452C512.226,399.432,513.129,393.194,510.627,387.704z
		 M162.235,168.626c-13.625,10.354-52.243,10.042-71.243-0.575c-9.686-5.413-9.099-16.916-8.688-20.313
		c1.252-10.362,7.681-19.132,15.633-21.324c13.303-3.67,18.417-9.259,23.364-14.663c3.343-3.653,6.774-7.402,13.6-11.581
		c-1.391,5.784-1.971,12.517,1.746,18.167c3.125,4.752,8.479,7.547,15.911,8.308c10.089,1.032,14.21,8.379,15.891,14.36
		C171.321,151.234,168.476,163.883,162.235,168.626z M289.125,168.626c-13.625,10.354-52.242,10.042-71.243-0.575
		c-9.686-5.413-9.099-16.916-8.689-20.313c1.252-10.363,7.681-19.132,15.633-21.324c13.303-3.67,18.417-9.258,23.363-14.663
		c3.344-3.653,6.774-7.402,13.6-11.581c-1.39,5.783-1.97,12.517,1.746,18.167c3.125,4.752,8.479,7.547,15.911,8.308
		c10.089,1.032,14.21,8.379,15.891,14.36C298.211,151.234,295.366,163.883,289.125,168.626z M416.015,168.626
		c-13.625,10.354-52.243,10.042-71.243-0.575c-9.686-5.413-9.099-16.916-8.688-20.313c1.252-10.362,7.681-19.132,15.633-21.324
		c13.303-3.67,18.417-9.259,23.364-14.663c3.343-3.653,6.773-7.402,13.599-11.58c-1.39,5.783-1.97,12.516,1.746,18.166
		c3.125,4.752,8.479,7.547,15.911,8.308c10.089,1.032,14.21,8.379,15.891,14.36C425.102,151.234,422.257,163.883,416.015,168.626z
		 M442.552,281.61h-74.54c-4.142,0-7.5,3.357-7.5,7.5s3.358,7.5,7.5,7.5h74.54v25.29H98.332v-25.29h240.01
		c4.142,0,7.5-3.357,7.5-7.5s-3.358-7.5-7.5-7.5H98.332v-11.8h344.22V281.61z M98.332,336.9h344.22V348.7H98.332V336.9z
		 M104.182,230.29h337.45c0.309,0,0.613-0.015,0.92-0.023v24.543H98.332v-18.67C98.332,232.914,100.956,230.29,104.182,230.29z
		 M98.332,363.7h344.22v15.106H98.332V363.7z"/>
</g>
<g>
</g>
<g>
</g>
<g>
</g>
<g>
</g>
<g>
</g>
<g>
</g>
<g>
</g>
<g>
</g>
<g>
</g>
<g>
</g>
<g>
</g>
<g>
</g>
<g>
</g>
<g>
</g>
<g>
</g>
</svg>
