<svg version="1.1" id="Layer_1" xmlns="http://www.w3.org/2000/svg" xmlns:xlink="http://www.w3.org/1999/xlink" x="0px" y="0px"
	 viewBox="0 0 356.889 356.889" style="enable-background:new 0 0 356.889 356.889;" xml:space="preserve">
<g>
	<path style="fill:#00783E;" d="M137.495,83.387c-19.622,0-35.657,15.331-36.795,34.666c-6.123-4.525-13.692-7.204-21.89-7.204
		c-18.338,0-33.542,13.392-36.382,30.927c-16.617,3.577-29.073,18.348-29.073,36.034c0,20.36,16.505,36.867,36.864,36.867
		c18.338,0,33.543-13.392,36.385-30.929c15.922-3.428,28.018-17.134,29.002-33.834c6.121,4.525,13.693,7.205,21.89,7.205
		c20.36,0,36.867-16.505,36.867-36.866C174.362,99.894,157.855,83.387,137.495,83.387z M323.688,164.277
		c-0.331-16.655-11.699-30.595-27.095-34.809c-2.638-17.772-17.957-31.408-36.462-31.408c-7.007,0-13.558,1.955-19.135,5.348
		c-6.707-9.17-17.54-15.13-29.77-15.13c-20.359,0-36.864,16.506-36.864,36.867c0,20.36,16.505,36.865,36.864,36.865
		c7.008,0,13.558-1.955,19.136-5.348c4.854,6.638,11.873,11.586,20.018,13.815c2.297,15.476,14.21,27.809,29.471,30.739
		c0.397,20.015,16.735,36.122,36.847,36.122c20.359,0,36.866-16.506,36.866-36.866C353.564,182.503,340.704,167.545,323.688,164.277
		z"/>
	<path style="fill:#5A3C3D;" d="M329.529,195.385c0.463-2.295,0.707-4.669,0.707-7.101c0-18.143-13.502-33.123-31.004-35.464
		c0.104-1.111,0.163-2.235,0.163-3.374c0-19.767-16.024-35.791-35.792-35.791c-1.782,0-3.531,0.134-5.242,0.386
		c-6.289-10.28-17.617-17.14-30.551-17.14c-19.766,0-35.791,16.024-35.791,35.792c0,19.767,16.025,35.791,35.791,35.791
		c1.782,0,3.531-0.134,5.242-0.385c5.501,8.988,14.855,15.352,25.763,16.811c-0.103,1.112-0.163,2.236-0.163,3.374
		c0,16.861,11.664,30.992,27.361,34.784c-0.463,2.295-0.707,4.669-0.707,7.1c0,19.768,16.024,35.792,35.791,35.792
		c19.769,0,35.792-16.024,35.792-35.792C356.891,213.306,345.227,199.177,329.529,195.385z"/>
	<path style="fill:#5A3C3D;" d="M83.325,115.799c-18.464,0-33.658,13.976-35.594,31.925c-13.269,5.242-22.661,18.173-22.661,33.305
		c0,3.924,0.641,7.697,1.807,11.231C11.422,196.228,0,210.252,0,226.945c0,19.776,16.031,35.808,35.808,35.808
		s35.808-16.031,35.808-35.808c0-3.925-0.64-7.697-1.807-11.23c14.241-3.655,25.052-15.851,26.665-30.803
		c13.269-5.243,22.661-18.172,22.661-33.305C119.134,131.831,103.102,115.799,83.325,115.799z"/>
	<circle style="fill:#5A3C3D;" cx="176.779" cy="122.2" r="35.807"/>
	<g>
		<circle style="fill:#E94F3D;" cx="315.879" cy="230.219" r="30.461"/>
		<circle style="fill:#E94F3D;" cx="296.27" cy="167.772" r="30.461"/>
		<circle style="fill:#E94F3D;" cx="43.036" cy="199.758" r="30.461"/>
		<circle style="fill:#E94F3D;" cx="113.257" cy="130.666" r="30.461"/>
		<circle style="fill:#E94F3D;" cx="243.725" cy="128.555" r="30.461"/>
	</g>
	<path style="fill:#D9A460;" d="M309.855,273.502c12.933,0,23.417-10.484,23.417-23.417c0-86.429-70.064-156.493-156.493-156.493
		S20.286,163.656,20.286,250.085c0,12.933,10.483,23.417,23.417,23.417H309.855z"/>
	<g>
		<circle style="fill:#B3874F;" cx="43.036" cy="250.243" r="3.012"/>
		<circle style="fill:#B3874F;" cx="65.247" cy="165.175" r="3.012"/>
		<circle style="fill:#B3874F;" cx="116.27" cy="127.861" r="3.013"/>
		<circle style="fill:#B3874F;" cx="125.06" cy="239.804" r="3.012"/>
		<circle style="fill:#B3874F;" cx="147.145" cy="165.175" r="3.013"/>
		<circle style="fill:#B3874F;" cx="188.486" cy="108.441" r="3.012"/>
		<circle style="fill:#B3874F;" cx="223.611" cy="134.714" r="3.012"/>
		<circle style="fill:#B3874F;" cx="193.911" cy="215.436" r="3.012"/>
		<circle style="fill:#B3874F;" cx="240.398" cy="245.896" r="3.012"/>
		<circle style="fill:#B3874F;" cx="260.893" cy="191.447" r="3.012"/>
		<circle style="fill:#B3874F;" cx="314.995" cy="242.883" r="3.012"/>
		<circle style="fill:#B3874F;" cx="280.725" cy="155.655" r="3.013"/>
		<circle style="fill:#B3874F;" cx="85.395" cy="210.105" r="3.013"/>
	</g>
</g>
<g>
</g>
<g>
</g>
<g>
</g>
<g>
</g>
<g>
</g>
<g>
</g>
<g>
</g>
<g>
</g>
<g>
</g>
<g>
</g>
<g>
</g>
<g>
</g>
<g>
</g>
<g>
</g>
<g>
</g>
</svg>
